<?xml version="1.0" standalone="no"?>
<!DOCTYPE svg PUBLIC "-//W3C//DTD SVG 20010904//EN"
 "http://www.w3.org/TR/2001/REC-SVG-20010904/DTD/svg10.dtd">
<svg version="1.0" xmlns="http://www.w3.org/2000/svg"
 width="1920.000000pt" height="1920.000000pt" viewBox="0 0 1920.000000 1920.000000"
 preserveAspectRatio="xMidYMid meet">
<metadata>
Created by potrace 1.16, written by Peter Selinger 2001-2019
</metadata>
<g transform="translate(0.000000,1920.000000) scale(0.100000,-0.100000)"
fill="#000000" stroke="none">
<path d="M12110 17993 c38 -15 104 -72 127 -110 23 -40 41 -124 58 -268 3 -33
24 -181 46 -329 21 -149 37 -272 34 -274 -2 -2 0 -14 5 -27 5 -12 12 -60 15
-106 4 -46 9 -87 11 -91 3 -5 7 -30 10 -56 2 -26 54 -396 114 -822 60 -426
112 -797 116 -825 3 -27 7 -64 9 -82 2 -18 6 -37 10 -42 10 -17 -26 -117 -53
-146 -14 -15 -39 -33 -56 -41 -31 -13 -31 -13 24 -14 30 0 72 5 93 11 39 11
112 74 115 100 1 8 5 30 8 49 3 19 -8 130 -25 245 -16 116 -33 237 -36 270 -8
77 -34 264 -46 335 -5 30 -10 62 -10 70 -1 8 -37 265 -80 570 -43 305 -90 645
-104 755 -54 423 -86 632 -102 674 -28 76 -137 167 -169 140 -11 -9 -14 -8
-14 5 0 13 -11 16 -57 15 -32 0 -51 -3 -43 -6z"/>
<path d="M6996 15781 c66 -38 140 -122 159 -181 17 -52 50 -299 41 -307 -3 -4
-2 -11 3 -17 7 -10 32 -169 36 -236 1 -14 5 -36 8 -50 4 -14 9 -50 12 -80 4
-49 7 -78 19 -160 2 -14 7 -50 10 -80 4 -30 44 -320 91 -645 47 -324 87 -610
89 -635 3 -25 10 -72 16 -105 5 -33 13 -96 16 -140 3 -44 8 -83 11 -88 2 -4 7
-29 9 -55 3 -26 38 -282 79 -569 41 -287 75 -534 75 -550 0 -46 -44 -126 -90
-166 -24 -20 -50 -37 -57 -37 -7 0 -13 -5 -13 -11 0 -18 168 -5 210 16 44 22
88 62 106 96 34 66 34 106 4 319 -47 332 -78 552 -105 760 -14 107 -62 447
-105 755 -44 308 -105 747 -135 975 -87 650 -134 961 -152 1015 -11 35 -33 67
-72 106 -66 66 -124 89 -239 95 l-77 4 51 -29z"/>
<path d="M11261 14738 c-5 -13 -28 -69 -50 -125 -23 -57 -59 -149 -81 -205
-24 -60 -51 -112 -66 -125 l-25 -23 79 0 c47 0 85 5 95 13 9 6 41 77 72 157
31 80 72 183 91 228 19 46 34 88 34 93 0 5 -32 9 -70 9 -64 0 -71 -2 -79 -22z"/>
<path d="M13517 14160 c552 -210 923 -625 1150 -1285 107 -313 173 -741 175
-1135 l1 -194 34 -45 c19 -24 48 -72 65 -105 30 -59 31 -60 39 -33 32 116 63
535 55 735 -30 711 -244 1252 -648 1638 -230 218 -521 369 -855 444 -130 28
-133 25 -16 -20z"/>
<path d="M12110 13994 c-14 -2 -65 -9 -115 -15 -170 -20 -501 -104 -630 -159
-88 -38 -303 -236 -416 -385 -239 -312 -381 -700 -398 -1085 -11 -254 14 -431
104 -743 25 -87 56 -201 70 -255 13 -53 38 -144 54 -202 l31 -105 -3 260 -2
260 145 7 c426 21 773 118 1100 306 273 157 538 417 688 675 25 43 49 80 54
83 20 13 175 -93 258 -176 138 -137 195 -277 220 -545 34 -358 78 -481 230
-636 65 -67 203 -169 227 -169 4 0 18 37 30 83 36 131 113 276 189 357 36 38
86 82 110 97 l45 28 -6 85 c-43 605 -179 1117 -390 1465 -160 265 -385 483
-619 602 -144 73 -348 134 -533 158 -101 13 -374 19 -443 9z"/>
<path d="M3937 11628 c-8 -18 -33 -82 -57 -143 -23 -60 -57 -146 -75 -190 -19
-44 -46 -111 -60 -150 -15 -38 -40 -82 -56 -97 l-29 -28 108 0 c125 0 127 1
162 89 11 30 29 73 40 95 19 42 121 300 124 316 1 3 7 15 14 28 7 12 10 22 6
22 -3 0 -2 6 4 13 6 7 12 26 14 42 l3 30 -92 3 -92 3 -14 -33z"/>
<path d="M12355 11546 c-25 -25 -33 -73 -19 -111 12 -30 63 -45 192 -57 137
-12 319 -1 361 21 27 15 27 46 -1 66 -55 38 -243 80 -445 100 -58 5 -65 4 -88
-19z"/>
<path d="M11455 11504 c-181 -28 -357 -93 -371 -137 -13 -40 18 -52 142 -56
175 -5 342 23 370 63 23 33 18 93 -11 121 -13 14 -28 25 -32 24 -4 -1 -48 -7
-98 -15z"/>
<path d="M12425 11312 c-111 -38 -205 -115 -276 -225 -38 -59 -83 -179 -94
-252 -16 -103 -7 -94 -93 -88 -63 4 -84 1 -113 -15 l-37 -19 -15 80 c-33 164
-146 335 -266 401 -283 154 -606 -60 -662 -439 l-11 -73 -45 -5 c-50 -5 -58
-10 -50 -32 5 -10 20 -15 51 -15 l44 0 7 -52 c40 -315 262 -539 509 -514 78 8
189 61 250 121 100 96 169 246 182 396 6 63 10 72 37 91 35 25 127 36 168 20
23 -9 27 -18 33 -69 20 -168 85 -312 186 -414 78 -79 161 -124 259 -141 140
-24 262 21 381 141 109 110 169 242 186 410 4 34 10 61 13 61 3 0 134 27 291
61 157 33 297 63 313 66 20 4 27 11 27 29 0 13 -3 24 -7 24 -5 0 -145 -29
-311 -65 -167 -36 -308 -65 -312 -65 -4 0 -11 28 -15 63 -22 189 -134 383
-272 470 -103 65 -253 85 -358 49z m290 -68 c88 -43 171 -131 223 -235 97
-195 97 -428 0 -627 -39 -81 -151 -198 -221 -231 -156 -75 -315 -43 -449 90
-221 219 -237 624 -35 879 50 64 101 102 184 136 50 21 70 24 148 21 75 -3
100 -8 150 -33z m-1304 -58 c143 -33 256 -151 321 -336 28 -79 35 -253 14
-345 -52 -218 -206 -376 -384 -392 -121 -11 -256 58 -339 174 -162 227 -145
577 37 776 61 67 114 100 190 121 69 19 92 19 161 2z"/>
<path d="M12471 10865 c-26 -34 -35 -80 -29 -151 11 -136 119 -150 148 -18 28
123 -58 245 -119 169z"/>
<path d="M11357 10892 c-41 -45 -49 -149 -18 -219 56 -121 162 -4 131 144 -18
82 -73 119 -113 75z"/>
<path d="M14883 10117 c-39 -54 -125 -138 -170 -164 -75 -43 -133 -53 -331
-53 -196 0 -253 11 -322 60 -23 16 -31 18 -35 8 -2 -7 -9 -256 -14 -553 -6
-297 -13 -590 -17 -650 l-6 -110 -90 -49 -90 -48 6 -37 c36 -199 56 -439 56
-681 0 -140 -6 -170 -32 -170 -4 0 -8 60 -8 133 0 234 -25 560 -52 680 -12 54
-12 55 -108 7 -46 -23 -300 -126 -351 -143 -14 -5 -14 -12 3 -79 29 -114 48
-341 51 -606 2 -207 0 -244 -13 -252 -8 -5 -18 -10 -21 -10 -4 0 -9 138 -12
308 -3 169 -11 343 -17 387 -10 79 -37 212 -45 225 -3 4 -49 -5 -104 -21 -103
-29 -325 -69 -381 -69 -30 0 -32 -2 -27 -27 17 -78 28 -352 25 -628 -3 -301
-4 -310 -23 -313 -20 -3 -20 3 -21 370 0 238 -5 411 -13 478 -7 58 -13 106
-14 106 -1 1 -60 4 -132 7 -71 4 -156 11 -188 17 -33 6 -61 9 -64 6 -3 -3 -11
-31 -19 -63 -26 -112 -37 -299 -32 -567 4 -246 3 -264 -13 -256 -9 5 -19 17
-23 26 -11 28 -7 564 4 666 6 54 17 121 25 150 7 29 11 56 9 60 -2 3 -18 9
-34 13 -16 4 -33 11 -36 17 -8 12 -6 168 2 249 l6 55 -108 1 c-168 1 -306 45
-499 158 -217 128 -458 371 -601 606 -21 35 -40 57 -42 50 -2 -7 1 -56 7 -109
25 -209 75 -387 156 -557 131 -272 369 -505 656 -639 79 -37 128 -54 287 -102
6 -2 12 -10 12 -19 0 -19 11 -16 -195 -55 -260 -50 -228 -29 -264 -178 -84
-354 -161 -791 -225 -1272 -66 -489 -139 -1325 -161 -1840 -3 -74 -8 -169 -10
-210 -2 -41 -7 -181 -10 -310 -3 -129 -8 -301 -11 -382 -5 -135 -4 -147 13
-152 10 -3 86 -14 168 -26 83 -11 174 -25 203 -31 l52 -10 0 -180 0 -179 463
0 c254 0 514 5 577 10 249 20 820 45 1394 60 208 6 383 13 387 16 5 3 9 108 9
235 0 183 -3 229 -13 229 -7 0 -164 -11 -348 -25 -184 -14 -602 -45 -929 -70
-327 -24 -754 -56 -948 -71 -259 -19 -357 -23 -365 -15 -8 8 -8 14 0 22 6 6
206 25 469 44 252 19 518 39 589 44 126 11 286 22 1020 76 193 14 388 29 435
33 l85 7 5 533 5 534 33 29 32 29 795 0 c751 0 795 1 795 18 0 48 -45 381 -75
557 -132 773 -353 1355 -675 1774 -32 42 -78 96 -103 120 l-45 44 -20 -64
c-11 -35 -25 -97 -32 -136 -10 -63 -15 -73 -32 -73 -19 0 -20 4 -15 53 18 148
94 339 181 455 57 75 162 159 240 193 30 13 56 27 56 30 0 13 -693 189 -746
189 -24 0 -91 -164 -149 -361 -139 -478 -229 -1175 -275 -2134 -12 -256 -30
-975 -30 -1217 0 -161 -1 -168 -20 -168 -20 0 -20 7 -20 298 1 1209 94 2354
246 3012 39 168 126 443 167 527 14 29 21 56 16 59 -20 12 -479 96 -649 118
-80 10 -85 12 -84 36 0 22 13 30 139 82 268 111 816 398 922 483 81 64 94 165
37 302 -110 263 -186 565 -234 924 -10 78 -20 142 -22 144 -2 2 -13 -11 -25
-28z m-1328 -3029 c-9 -38 -53 -440 -74 -673 -59 -641 -81 -1099 -90 -1850 -5
-502 -7 -550 -23 -553 -9 -2 -18 4 -20 14 -8 45 12 1225 26 1494 37 701 116
1538 148 1577 18 22 39 16 33 -9z m-1185 -127 c0 -26 -7 -113 -15 -192 -35
-339 -82 -1023 -110 -1609 -20 -419 -45 -1080 -45 -1206 0 -86 -3 -103 -17
-108 -24 -9 -33 12 -28 64 2 25 7 153 10 285 10 399 42 1138 65 1510 17 256
40 581 50 700 33 378 52 582 55 593 3 6 11 12 20 12 11 0 15 -12 15 -49z"/>
<path d="M12889 10050 c-45 -13 -81 -43 -96 -78 -12 -30 -12 -37 4 -70 46 -94
225 -112 300 -30 91 98 -56 225 -208 178z"/>
<path d="M11018 10024 c-59 -18 -98 -62 -98 -111 0 -49 51 -97 119 -112 59
-13 102 -6 154 23 102 55 82 166 -36 201 -61 18 -78 18 -139 -1z"/>
<path d="M1745 8107 c-133 -64 -237 -265 -291 -562 -9 -51 -18 -175 -21 -287
-8 -268 15 -500 74 -766 13 -63 23 -115 21 -117 -2 -2 -43 23 -91 55 -185 123
-357 166 -457 115 -124 -64 -172 -287 -115 -530 53 -226 221 -551 417 -810
l53 -70 822 -3 822 -2 98 99 c211 212 325 429 295 562 -14 61 -52 119 -93 143
-72 43 -205 28 -363 -40 -43 -19 -80 -33 -81 -32 -2 2 12 37 32 78 137 295
274 672 318 880 81 383 20 543 -215 558 -172 10 -343 -75 -551 -275 l-86 -83
-6 148 c-17 389 -116 692 -277 853 -102 103 -208 133 -305 86z"/>
<path d="M11490 7840 c-209 -54 -427 -121 -497 -155 -85 -40 -222 -128 -281
-182 l-43 -38 17 -142 c10 -79 20 -143 24 -143 4 0 20 17 36 38 15 20 57 67
92 104 60 62 65 72 92 166 38 130 58 179 76 186 27 10 25 -21 -6 -110 -56
-160 -102 -377 -134 -638 -15 -120 -26 -150 -47 -129 -14 14 -2 128 37 352 13
79 23 146 21 148 -2 2 -24 -20 -48 -49 -93 -111 -109 -135 -109 -169 0 -32 52
-452 150 -1219 27 -212 52 -405 55 -430 3 -25 23 -192 45 -371 22 -179 40
-345 40 -368 0 -54 -22 -96 -63 -118 -36 -20 -106 -22 -657 -23 l-296 0 -47
-247 c-25 -136 -51 -251 -57 -257 -7 -7 -14 -6 -21 1 -8 8 -1 70 30 235 23
123 44 233 46 246 l5 22 -170 0 -169 0 -16 -57 c-9 -32 -22 -76 -30 -98 -8
-22 -37 -121 -65 -220 -28 -99 -53 -187 -56 -196 -3 -13 -23 -18 -82 -24 -170
-15 -525 -85 -807 -159 -135 -35 -448 -126 -453 -131 -2 -2 29 -20 68 -39 189
-95 313 -221 379 -387 l30 -74 721 -3 720 -2 88 73 c235 195 549 353 768 387
58 9 89 8 160 -4 49 -9 96 -16 105 -16 15 0 17 29 23 258 40 1548 168 2791
392 3800 25 112 44 205 42 206 -2 2 -50 -9 -108 -24z m-1842 -4179 c-3 -12
-102 -35 -488 -113 -541 -108 -563 -111 -568 -86 -2 11 5 19 20 22 202 44
1016 201 1026 198 7 -3 12 -12 10 -21z"/>
<path d="M15637 7832 c4 -15 -5 -23 -41 -38 -25 -11 -46 -21 -46 -24 0 -3 33
-25 74 -49 122 -72 279 -223 405 -390 504 -666 973 -1967 1096 -3041 33 -285
30 -657 -7 -835 -13 -67 -51 -119 -101 -143 -60 -28 -312 -57 -657 -75 l-45
-2 -6 -71 c-8 -83 -38 -139 -93 -174 -20 -12 -36 -22 -36 -23 0 -6 1167 0
1177 6 24 15 53 119 63 224 44 471 -62 1311 -276 2168 -32 129 -50 192 -120
425 -54 178 -179 517 -267 720 -287 667 -634 1116 -998 1288 -114 54 -129 58
-122 34z"/>
<path d="M15441 7698 c-59 -50 -115 -120 -160 -201 l-33 -58 74 -77 c325 -337
590 -953 747 -1739 34 -171 87 -526 97 -655 l7 -88 33 0 c23 0 44 -10 68 -31
l35 -31 3 -121 3 -121 86 -12 c232 -34 411 -170 509 -388 114 -255 50 -547
-164 -743 -40 -37 -99 -77 -149 -102 -95 -48 -96 -47 124 -26 185 18 251 29
288 51 57 34 73 89 92 314 31 378 -35 903 -192 1535 -127 506 -363 1144 -577
1555 -248 477 -525 817 -773 950 -31 16 -59 30 -62 30 -3 0 -28 -19 -56 -42z"/>
<path d="M16310 3915 l0 -465 28 0 c45 0 141 28 196 58 166 88 270 297 239
477 -22 127 -102 252 -209 326 -53 36 -152 69 -209 69 l-45 0 0 -465z"/>
<path d="M14140 3190 c-151 -4 -381 -11 -510 -15 -129 -5 -245 -8 -257 -8 -21
1 -20 -1 7 -24 27 -22 29 -30 32 -101 l3 -77 600 -2 c443 -2 595 0 580 9 -33
18 -86 71 -102 102 -8 16 -18 50 -22 75 -7 55 30 50 -331 41z"/>
<path d="M0 2145 l0 -225 9600 0 9600 0 0 225 0 225 -9600 0 -9600 0 0 -225z"/>
</g>
</svg>
